<svg version="1.1" xmlns="http://www.w3.org/2000/svg" xmlns:xlink="http://www.w3.org/1999/xlink" width="1560" height="804"><defs/><g><path fill="none" stroke="#16A34A" paint-order="fill stroke markers" d=" M 20 441.52799395635975 L 21 443.4164318900827 L 22 445.2921227109665 L 23 447.1544891205465 L 24 449.0029579213334 L 25 450.83696019323185 L 26 452.6559314686418 L 27 454.45931190619024 L 28 456.2465464630383 L 29 458.0170850657122 L 30 459.7703827794039 L 31 461.5058999756913 L 32 463.223102498624 L 33 464.92146182912563 L 34 466.60045524766105 L 35 468.2595659951183 L 36 469.89828343185644 L 37 471.5161031948697 L 38 473.11252735301974 L 39 474.68706456028883 L 40 476.23923020700545 L 41 477.7685465689974 L 42 479.27454295462496 L 43 480.7567558496503 L 44 482.21472905989737 L 45 483.6480138516587 L 46 485.0561690898066 L 47 486.4387613735652 L 48 487.7953651699022 L 49 489.1255629444989 L 50 490.42894529025864 L 51 491.705111053314 L 52 492.95366745649306 L 53 494.1742302202085 L 54 495.36642368073063 L 55 496.52988090580874 L 56 497.6642438076053 L 57 498.76916325290813 L 58 499.8442991705857 L 59 500.88932065625477 L 60 501.90390607412496 L 61 502.8877431559923 L 62 503.84052909734845 L 63 504.7619706505775 L 64 505.65178421521176 L 65 506.509695925218 L 66 507.33544173328767 L 67 508.128767492105 L 68 508.8894290325683 L 69 509.61719223894033 L 70 510.311833120904 L 71 510.973137882502 L 72 511.6009029879387 L 73 512.1949352242242 L 74 512.7550517606412 L 75 513.2810802050169 L 76 513.772858656781 L 77 514.2302357567958 L 78 514.6530707339414 L 79 515.0412334484416 L 80 515.3946044319192 L 81 515.7130749241649 L 82 515.9965469066115 L 83 516.2449331325026 L 84 516.4581571537451 L 85 516.6361533444378 L 86 516.7788669210704 L 87 516.8862539593842 L 88 516.9582814078916 L 89 516.9949270980478 L 90 516.9961797510748 L 91 516.9620389814322 L 92 516.8925152969357 L 93 516.7876300955238 L 94 516.647415658671 L 95 516.471915141453 L 96 516.261182559264 L 97 516.0152827711919 L 98 515.7342914600566 L 99 515.4182951091157 L 100 515.0673909754471 L 101 514.6816870600151 L 102 514.2613020744303 L 103 513.8063654044125 L 104 513.3170170699682 L 105 512.7934076822958 L 106 512.2356983974302 L 107 511.64406086664275 L 108 511.01867718361035 L 109 510.3597398283707 L 110 509.66745160808125 L 111 508.94202559459916 L 112 508.1836850589024 L 113 507.3926634023715 L 114 506.5692040849534 L 115 505.7135605502298 L 116 504.82599614741235 L 117 503.9067840502893 L 118 502.9562071731482 L 119 501.97455808370114 L 120 500.9621389130381 L 121 499.9192612626374 L 122 498.8462461084617 L 123 497.74342370216755 L 124 496.61113346946155 L 125 495.4497239056318 L 126 494.2595524682883 L 127 493.04098546734537 L 128 491.7943979522784 L 129 490.52017359669236 L 130 489.2187045802342 L 131 487.8903914678888 L 132 486.5356430866929 L 133 485.1548763999073 L 134 483.7485163786837 L 135 482.31699587126764 L 136 480.8607554697769 L 137 479.3802433745966 L 138 477.87591525643217 L 139 476.34823411606357 L 140 474.79767014184335 L 141 473.22470056498247 L 142 471.62980951266843 L 143 470.01348785906123 L 144 468.3762330742121 L 145 466.7185490709534 L 146 465.0409460498038 L 147 463.34394034193997 L 148 461.62805425028046 L 149 459.89381588873147 L 150 458.14175901964467 L 151 456.3724228895364 L 152 454.5863520631184 L 153 452.7840962556927 L 154 450.96621016396045 L 155 449.13325329529795 L 156 447.2857897955518 L 157 445.4243882754067 L 158 443.54962163537914 L 159 441.6620668894903 L 160 439.76230498767313 L 161 437.85092063696857 L 162 435.92850212156435 L 163 433.9956411217338 L 164 432.0529325317288 L 165 430.10097427668404 L 166 428.1403671285877 L 167 426.17171452137677 L 168 424.1956223652125 L 169 422.2126988599939 L 170 420.2235543081667 L 171 418.22880092688473 L 172 416.22905265958246 L 173 414.2249249870159 L 174 412.2170347378307 L 175 410.2059998987148 L 176 408.1924394241956 L 177 406.1769730461378 L 178 404.1602210830039 L 179 402.14280424893235 L 180 400.1253434626952 L 181 398.10845965659183 L 182 396.09277358533944 L 183 394.07890563501724 L 184 392.06747563212497 L 185 390.0591026528128 L 186 388.0544048323431 L 187 386.05399917484107 L 188 384.05850136339376 L 189 382.0685255705556 L 190 380.08468426931915 L 191 378.1075880446086 L 192 376.13784540535414 L 193 374.1760625972063 L 194 372.22284341594553 L 195 370.2787890216469 L 196 368.34449775365545 L 197 366.42056494642975 L 198 364.50758274631056 L 199 362.60613992927034 L 200 360.7168217197006 L 201 358.8402096102915 L 202 356.97688118306127 L 203 355.1274099315881 L 204 353.2923650845007 L 205 351.472311430282 L 206 349.6678091434386 L 207 347.8794136120911 L 208 346.1076752670372 L 209 344.35313941234034 L 210 342.61634605749674 L 211 340.89782975123165 L 212 339.1981194169765 L 213 337.5177381900773 L 214 335.85720325678426 L 215 334.2170256950732 L 216 332.5977103173457 L 217 330.999755515059 L 218 329.42365310533137 L 219 327.8698881795708 L 220 326.3389389541743 L 221 324.83127662334266 L 222 323.347365214057 L 223 321.88766144326064 L 224 320.4526145772913 L 225 319.0426662936063 L 226 317.6582505448436 L 227 316.29979342525996 L 228 314.96771303958826 L 229 313.6624193743534 L 230 312.38431417168715 L 231 311.1337908056804 L 232 309.9112341613105 L 233 308.71702051598214 L 234 307.5515174237165 L 235 306.41508360202647 L 236 305.3080688215101 L 237 304.2308137981993 L 238 303.18365008869387 L 239 302.1668999881157 L 240 301.1808764309131 L 241 300.2258828945459 L 242 299.30221330608157 L 243 298.4101519517304 L 244 297.54997338934857 L 245 296.7219423639344 L 246 295.92631372614574 L 247 295.1633323538624 L 248 294.4332330768173 L 249 293.7362406043215 L 250 293.07256945610266 L 251 292.4424238962808 L 252 291.84599787049996 L 253 291.2834749462358 L 254 290.75502825629724 L 255 290.26082044553993 L 256 289.8010036208075 L 257 289.3757193041162 L 258 288.9850983890977 L 259 288.6292611007122 L 260 288.30831695824617 L 261 288.02236474160446 L 262 287.7714924609077 L 263 287.5557773294051 L 264 287.3752857397093 L 265 287.23007324336237 L 266 287.12018453373827 L 267 287.045653432287 L 268 287.00650287812516 L 269 287.0027449209758 L 270 287.03438071745956 L 271 287.101400530739 L 272 287.20378373351514 L 273 287.3414988143762 L 274 287.5145033874963 L 275 287.72274420568056 L 276 287.96615717675377 L 277 288.2446673832868 L 278 288.55818910565404 L 279 288.90662584841664 L 280 289.28987037002156 L 281 289.7078047158083 L 282 290.16030025431303 L 283 290.6472177168583 L 284 291.1684072404174 L 285 291.7237084137391 L 286 292.31295032671835 L 287 292.93595162299965 L 288 293.59252055579395 L 289 294.28245504689494 L 290 295.00554274887395 L 291 295.7615611104367 L 292 296.55027744491923 L 293 297.3714490019046 L 294 298.22482304193596 L 295 299.1101369143048 L 296 300.02711813788915 L 297 300.97548448501755 L 298 301.95494406833325 L 299 302.9651954306302 L 300 304.00592763763643 L 301 305.0768203737118 L 302 306.17754404043586 L 303 307.3077598580502 L 304 308.4671199697283 L 305 309.6552675486388 L 306 310.8718369077687 L 307 312.116453612475 L 308 313.3887345957271 L 309 314.6882882760075 L 310 316.01471467783165 L 311 317.3676055548529 L 312 318.7465445155117 L 313 320.15110715119204 L 314 321.58086116684626 L 315 323.0353665140456 L 316 324.51417552641874 L 317 326.01683305743336 L 318 327.5428766204815 L 319 329.09183653122255 L 320 330.6632360521429 L 321 332.2565915392854 L 322 333.8714125911051 L 323 335.50720219940445 L 324 337.163456902302 L 325 338.83966693918785 L 326 340.5353164076166 L 327 342.2498834220921 L 328 343.98284027469265 L 329 345.733653597488 L 330 347.5017845266997 L 331 349.28668886855127 L 332 351.08781726676057 L 333 352.90461537161934 L 334 354.736524010611 L 335 356.5829793605122 L 336 358.44341312092547 L 337 360.3172526891908 L 338 362.2039213366203 L 339 364.10283838600355 L 340 366.01341939032756 L 341 367.9350763126579 L 342 369.86721770712353 L 343 371.8092489009521 L 344 373.76057217749764 L 345 375.7205869602046 L 346 377.68868999745416 L 347 379.6642755482309 L 348 381.6467355685585 L 349 383.63545989864207 L 350 385.6298364506635 L 351 387.6292513971682 L 352 389.6330893599895 L 353 391.6407335996485 L 354 393.6515662051736 L 355 395.664968284281 L 356 397.6803201538563 L 357 399.6970015306808 L 358 401.7143917223407 L 359 403.7318698182641 L 360 405.74881488082406 L 361 407.76460613644986 L 362 409.7786231666889 L 363 411.7902460991575 L 364 413.79885579832603 L 365 415.8038340560745 L 366 417.8045637819651 L 367 419.80042919316924 L 368 421.7908160039929 L 369 423.77511161494095 L 370 425.75270530126204 L 371 427.7229884009177 L 372 429.68535450191496 L 373 431.63919962894806 L 374 433.58392242928875 L 375 435.5189243578707 L 376 437.44360986150883 L 377 439.35738656219814 L 378 441.25966543943554 L 379 443.1498610115076 L 380 445.0273915156903 L 381 446.8916790873026 L 382 448.74214993756186 L 383 450.5782345301835 L 384 452.39936775667286 L 385 454.20498911025356 L 386 455.99454285837936 L 387 457.76747821377796 L 388 459.5232495039709 L 389 461.2613163392208 L 390 462.98114377885156 L 391 464.6822024958925 L 392 466.36396893999364 L 393 468.0259254985635 L 394 469.66756065608 L 395 471.2883691515238 L 396 472.88785213388735 L 397 474.4655173157103 L 398 476.02087912459626 L 399 477.55345885266075 L 400 479.06278480386834 L 401 480.5483924392105 L 402 482.00982451968065 L 403 483.4466312470037 L 404 484.85837040207355 L 405 486.2446074810596 L 406 487.60491582913755 L 407 488.9388767718052 L 408 490.24607974374135 L 409 491.5261224151694 L 410 492.77861081568636 L 411 494.003159455518 L 412 495.1993914441652 L 413 496.36693860640264 L 414 497.5054415955957 L 415 498.6145500042994 L 416 499.6939224721072 L 417 500.7432267907139 L 418 501.76214000616267 L 419 502.75034851824387 L 420 503.7075481770141 L 421 504.63344437640745 L 422 505.5277521449093 L 423 506.3901962332642 L 424 507.2205111991922 L 425 508.018441489086 L 426 508.78374151666577 L 427 509.5161757385645 L 428 510.21551872682426 L 429 510.88155523827743 L 430 511.5140802807947 L 431 512.1128991763769 L 432 512.6778276210731 L 433 513.2086917417054 L 434 513.7053281493834 L 435 514.167583989792 L 436 514.5953169902369 L 437 514.9883955034329 L 438 515.3466985480222 L 439 515.6701158458101 L 440 515.9585478557062 L 441 516.2119058043613 L 442 516.4301117134896 L 443 516.6130984238689 L 444 516.7608096160113 L 445 516.8731998274963 L 446 516.9502344669639 L 447 516.9918898247608 L 448 516.9981530802378 L 449 516.9690223056956 L 450 516.9045064669783 L 451 516.8046254207137 L 452 516.669409908202 L 453 516.4989015459546 L 454 516.2931528128843 L 455 516.0522270341545 L 456 515.7761983616889 L 457 515.4651517513485 L 458 515.1191829367843 L 459 514.7383983999728 L 460 514.3229153384422 L 461 513.8728616292026 L 462 513.3883757893872 L 463 512.8696069336199 L 464 512.3167147281213 L 465 511.72986934156614 L 466 511.10925139270927 L 467 510.4550518947951 L 468 509.7674721967674 L 469 509.04672392129874 L 470 508.29302889965675 L 471 507.5066191034298 L 472 506.6877365731306 L 473 505.83663334370146 L 474 504.9535713669427 L 475 504.03882243088987 L 476 503.09266807616297 L 477 502.11539950931365 L 478 501.1073175131988 L 479 500.0687323544049 L 480 498.99996368775544 L 481 497.9013404579266 L 482 496.7732007982063 L 483 495.61589192642293 L 484 494.4297700380791 L 485 493.2152001967223 L 486 491.97255622158605 L 487 490.7022205725359 L 488 489.4045842323561 L 489 488.0800465864138 L 490 486.7290152997363 L 491 485.3519061915399 L 492 483.94914310725017 L 493 482.52115778805063 L 494 481.0683897380021 L 495 479.5912860887721 L 496 478.0903014620177 L 497 476.56589782946224 L 498 475.0185443707095 L 499 473.4487173288409 L 500 471.85689986383744 L 501 470.24358190387306 L 502 468.6092599945248 L 503 466.95443714594705 L 504 465.27962267805503 L 505 463.5853320637671 L 506 461.8720867703522 L 507 460.1404140989343 L 508 458.39084702219935 L 509 456.6239240203572 L 510 454.8401889154094 L 511 453.0401907037716 L 512 451.22448338730436 L 513 449.39362580280203 L 514 447.5481814499955 L 515 445.6887183181186 L 516 443.81580871109185 L 517 441.9300290713806 L 518 440.0319598025774 L 519 438.12218509076604 L 520 436.20129272472076 L 521 434.26987391499824 L 522 432.3285231119745 L 523 430.3778378228853 L 524 428.41841842792667 L 525 426.4508679954701 L 526 424.47579209645056 L 527 422.49379861798405 L 528 420.50549757627357 L 529 418.51150092885825 L 530 416.51242238626577 L 531 414.50887722312456 L 532 412.5014820887962 L 533 410.49085481758283 L 534 408.47761423857037 L 535 406.4623799851669 L 536 404.4457723043915 L 537 402.428411865976 L 538 400.41091957133443 L 539 398.3939163624641 L 540 396.378023030832 L 541 394.3638600263075 L 542 392.35204726620185 L 543 390.3432039444701 L 544 388.3379483411363 L 545 386.33689763199925 L 546 384.34066769867945 L 547 382.3498729390635 L 548 380.36512607820447 L 549 378.38703797973886 L 550 376.4162174578752 L 551 374.4532710900137 L 552 372.4988030300539 L 553 370.55341482245 L 554 368.6177052170669 L 555 366.6922699848975 L 556 364.77770173469776 L 557 362.87458973059324 L 558 360.9835197107165 L 559 359.1050737069281 L 560 357.23982986568075 L 561 355.3883622700771 L 562 353.55124076317907 L 563 351.7290307726217 L 564 349.92229313658714 L 565 348.13158393119 L 566 346.357454299328 L 567 344.60045028105304 L 568 342.86111264551056 L 569 341.13997672450245 L 570 339.43757224772247 L 571 337.75442317971755 L 572 336.0910475586219 L 573 334.4479573367152 L 574 332.8256582228554 L 575 331.2246495268313 L 576 329.64542400568604 L 577 328.0884677120558 L 578 326.554259844574 L 579 325.04327260038383 L 580 323.55597102980477 L 581 322.0928128932012 L 582 320.65424852009255 L 583 319.2407206705516 L 584 317.85266439893144 L 585 316.49050691996604 L 586 315.15466747728146 L 587 313.8455572143621 L 588 312.5635790480086 L 589 311.3091275443292 L 590 310.0825887973002 L 591 308.88434030993403 L 592 307.7147508780922 L 593 306.5741804769774 L 594 305.46298015034074 L 595 304.38149190243746 L 596 303.3300485927657 L 597 302.308973833619 L 598 301.31858189048506 L 599 300.35917758532173 L 600 299.43105620273906 L 601 298.5345033991167 L 602 297.6697951146848 L 603 296.83719748859573 L 604 296.03696677701186 L 605 295.26934927423486 L 606 294.534581236902 L 607 293.8328888112712 L 608 293.1644879636176 L 609 292.5295844137638 L 610 291.92837357176404 L 611 291.3610404777603 L 612 290.8277597450313 L 613 290.32869550625014 L 614 289.86400136296766 L 615 289.43382033833694 L 616 289.0382848330939 L 617 288.6775165848071 L 618 288.3516266304095 L 619 288.0607152720236 L 620 287.80487204609017 L 621 287.58417569581167 L 622 287.39869414691583 L 623 287.24848448675 L 624 287.1335929467107 L 625 287.0540548880148 L 626 287.0098947908157 L 627 287.0011262466691 L 628 287.02775195434987 L 629 287.0897637190211 L 630 287.1871424547567 L 631 287.31985819041535 L 632 287.48787007886506 L 633 287.6911264095552 L 634 287.92956462443175 L 635 288.20311133719144 L 636 288.5116823558686 L 637 288.85518270874746 L 638 289.2335066735928 L 639 289.64653781018865 L 640 290.0941489961765 L 641 290.57620246618086 L 642 291.09254985421023 L 643 291.6430322393214 L 644 292.22748019453195 L 645 292.84571383896633 L 646 293.49754289321925 L 647 294.1827667379199 L 648 294.9011744754784 L 649 295.6525449949956 L 650 296.4366470403164 L 651 297.2532392812055 L 652 298.10207038762417 L 653 298.98287910708393 L 654 299.89539434505457 L 655 300.8393352484021 L 656 301.81441129182866 L 657 302.8203223672905 L 658 303.85675887636484 L 659 304.92340182553824 L 660 306.0199229243855 L 661 307.14598468661086 L 662 308.3012405339196 L 663 309.485334902687 L 664 310.69790335339354 L 665 311.93857268279214 L 666 313.2069610387722 L 667 314.5026780378853 L 668 315.82532488549737 L 669 317.17449449852967 L 670 318.54977163074983 L 671 319.9507330005764 L 672 321.37694742135585 L 673 322.82797593407315 L 674 324.30337194245374 L 675 325.80268135041683 L 676 327.32544270183655 L 677 328.87118732256886 L 678 330.4394394646991 L 679 332.0297164529674 L 680 333.6415288333268 L 681 335.2743805235858 L 682 336.92776896609297 L 683 338.601185282413 L 684 340.29411442995 L 685 342.00603536046543 L 686 343.73642118044677 L 687 345.4847393132744 L 688 347.2504516631369 L 689 349.0330147806463 L 690 350.8318800300999 L 691 352.64649375833994 L 692 354.47629746515514 L 693 356.320727975176 L 694 358.17921761120897 L 695 360.0511943689548 L 696 361.9360820930596 L 697 363.8333006544438 L 698 365.7422661288541 L 699 367.66239097658206 L 700 369.59308422329735 L 701 371.53375164193704 L 702 373.48379593559685 L 703 375.4426169213657 L 704 377.4096117150498 L 705 379.38417491672874 L 706 381.36569879708355 L 707 383.35357348444387 L 708 385.34718715249335 L 709 387.34592620857785 L 710 389.3491754825553 L 711 391.35631841613275 L 712 393.36673725263057 L 713 395.37981322711414 L 714 397.3949267568375 L 715 399.4114576319375 L 716 401.4287852063222 L 717 403.4462885886917 L 718 405.4633468336362 L 719 407.47933913275034 L 720 409.4936450057041 L 721 411.5056444912144 L 722 413.51471833785587 L 723 415.52024819465424 L 724 417.5216168014008 L 725 419.51820817863256 L 726 421.5094078172187 L 727 423.4946028674924 L 728 425.47318232787393 L 729 427.4445372329236 L 730 429.40806084076985 L 731 431.36314881985004 L 732 433.30919943491216 L 733 435.245613732216 L 734 437.1717957238792 L 735 439.08715257130893 L 736 440.99109476766563 L 737 442.8830363193015 L 738 444.76239492611603 L 739 446.62859216077663 L 740 448.4810536467459 L 741 450.3192092350637 L 742 452.14249317982586 L 743 453.9503443123094 L 744 455.74220621368954 L 745 457.51752738629204 L 746 459.27576142333396 L 747 461.01636717709556 L 748 462.73880892547515 L 749 464.4425565368721 L 750 466.1270856333506 L 751 467.7918777520331 L 752 469.43642050467093 L 753 471.06020773534783 L 754 472.6627396762634 L 755 474.2435231015522 L 756 475.8020714790871 L 757 477.33790512022455 L 758 478.85055132744236 L 759 480.33954453982676 L 760 481.80442647636147 L 761 483.24474627697714 L 762 484.66006064131767 L 763 486.04993396517744 L 764 487.413938474572 L 765 488.7516543573976 L 766 490.06266989264134 L 767 491.346581577099 L 768 492.602994249566 L 769 493.83152121245945 L 770 495.0317843508354 L 771 496.20341424876483 L 772 497.34605030303203 L 773 498.4593408341215 L 774 499.54294319445626 L 775 500.5965238738586 L 776 501.61975860219746 L 777 502.6123324491914 L 778 503.5739399213383 L 779 504.50428505593925 L 780 505.4030815121903 L 781 506.2700526593117 L 782 507.1049316616892 L 783 507.9074615610007 L 784 508.67739535530234 L 785 509.41449607505064 L 786 510.11853685603694 L 787 510.7893010092113 L 788 511.42658208737487 L 789 512.0301839487202 L 790 512.5999208171991 L 791 513.1356173397014 L 792 513.6371086400244 L 793 514.1042403696184 L 794 514.5368687550922 L 795 514.9348606424633 L 796 515.2980935381398 L 797 515.626455646622 L 798 515.9198459049101 L 799 516.1781740136094 L 800 516.4013604647224 L 801 516.5893365661207 L 802 516.7420444626855 L 803 516.8594371541153 L 804 516.9414785093911 L 805 516.9881432778972 L 806 516.9994170971922 L 807 516.97529649743 L 808 516.9157889024275 L 809 516.8209126273797 L 810 516.6906968732228 L 811 516.5251817176467 L 812 516.3244181027596 L 813 516.08846781941 L 814 515.8174034881675 L 815 515.5113085369728 L 816 515.1702771754597 L 817 514.7944143659594 L 818 514.3838357911957 L 819 513.9386678186796 L 820 513.4590474618169 L 821 512.9451223377375 L 822 512.3970506218623 L 823 511.81500099921993 L 824 511.1991526125296 L 825 510.54969500706386 L 826 509.86682807231114 L 827 509.1507619804536 L 828 508.40171712168086 L 829 507.61992403635827 L 830 506.80562334407114 L 831 505.95906566956774 L 832 505.0805115656216 L 833 504.17023143283916 L 834 503.22850543643585 L 835 502.2556234200075 L 836 501.2518848163222 L 837 500.217598555161 L 838 499.15308296823616 L 839 498.0586656912153 L 840 496.9346835628814 L 841 495.7814825214616 L 842 494.5994174981543 L 843 493.3888523078888 L 844 492.15015953735013 L 845 490.8837204303058 L 846 489.58992477026595 L 847 488.26917076051666 L 848 486.9218649015605 L 849 485.54842186600547 L 850 484.1492643709364 L 851 482.7248230478116 L 852 481.2755363099238 L 853 479.80185021746564 L 854 478.3042183402417 L 855 476.78310161806843 L 856 475.23896821890776 L 857 473.6722933947741 L 858 472.08355933546113 L 859 470.47325502013507 L 860 468.84187606683633 L 861 467.189924579939 L 862 465.51790899561263 L 863 463.82634392533777 L 864 462.1157499975183 L 865 460.3866536972428 L 866 458.6395872042439 L 867 456.87508822910434 L 868 455.09369984776094 L 869 453.29597033435647 L 870 451.48245299249345 L 871 449.6537059849382 L 872 447.8102921618302 L 873 445.9527788874479 L 874 444.08173786558706 L 875 442.19774496360156 L 876 440.301380035163 L 877 438.39322674179476 L 878 436.47387237323284 L 879 434.5439076666702 L 880 432.6039266249399 L 881 430.6545263336942 L 882 428.6963067776338 L 883 426.7298706558443 L 884 424.75582319629916 L 885 422.7747719695826 L 886 420.7873267018922 L 887 418.7940990873772 L 888 416.79570259987327 L 889 414.792752304087 L 890 412.7858646662915 L 891 410.77565736459223 L 892 408.7627490988176 L 893 406.7477594000966 L 894 404.7313084401792 L 895 402.71401684056167 L 896 400.6965054814716 L 897 398.6793953107733 L 898 396.6633071528544 L 899 394.648861517548 L 900 392.6366784091534 L 901 390.62737713561063 L 902 388.6215761178918 L 903 386.61989269966307 L 904 384.6229429572798 L 905 382.6313415101702 L 906 380.64570133166933 L 907 378.6666335603583 L 908 376.69474731196806 L 909 374.7306494919073 L 910 372.7749446084688 L 911 370.8282345867751 L 912 368.8911185835175 L 913 366.96419280254923 L 914 365.0480503113859 L 915 363.1432808586716 L 916 361.250470692667 L 917 359.3702023808131 L 918 357.50305463043117 L 919 355.6496021106071 L 920 353.8104152753211 L 921 351.98606018787336 L 922 350.17709834666204 L 923 348.3840865123657 L 924 346.6075765365828 L 925 344.84811519198564 L 926 343.10624400403333 L 927 341.38249908430214 L 928 339.67741096548144 L 929 337.991504438087 L 930 336.3252983889417 L 931 334.6793056414714 L 932 333.05403279787106 L 933 331.44998008318134 L 934 329.8676411913306 L 935 328.30750313318583 L 936 326.77004608666107 L 937 325.255743248929 L 938 323.7650606907792 L 939 322.2984572131737 L 940 320.8563842060359 L 941 319.4392855093227 L 942 318.04759727641965 L 943 316.6817478399024 L 944 315.34215757970463 L 945 314.02923879373395 L 946 312.7433955709747 L 947 311.48502366711887 L 948 310.2545103827599 L 949 309.05223444419016 L 950 307.8785658868363 L 951 306.73386594137077 L 952 305.61848692253227 L 953 304.5327721206899 L 954 303.4770556961871 L 955 302.4516625764928 L 956 301.45690835619604 L 957 300.4930991998724 L 958 299.56053174785313 L 959 298.6594930249253 L 960 297.7902603519912 L 961 296.9531012607156 L 962 296.14827341118433 L 963 295.3760245126025 L 964 294.6365922470542 L 965 293.9302041963492 L 966 293.25707777197823 L 967 292.6174201481976 L 968 292.01142819826606 L 969 291.43928843385095 L 970 290.9011769476238 L 971 290.39725935906273 L 972 289.9276907634782 L 973 289.49261568427806 L 974 289.0921680284859 L 975 288.72647104552766 L 976 288.3956372892979 L 977 288.0997685835181 L 978 287.8389559903971 L 979 287.6132797826047 L 980 287.42280941856484 L 981 287.26760352107794 L 982 287.14770985927817 L 983 287.0631653339308 L 984 287.01399596607524 L 985 287.00021688901614 L 986 287.02183234366566 L 987 287.07883567723826 L 988 287.1712093452982 L 989 287.2989249171596 L 990 287.4619430846364 L 991 287.660213674141 L 992 287.89367566212644 L 993 288.1622571938682 L 994 288.46587560557947 L 995 288.8044374498537 L 996 289.17783852442534 L 997 289.58596390424134 L 998 290.02868797683266 L 999 290.50587448097514 L 1000 291.0173765486278 L 1001 291.563036750136 L 1002 292.14268714268445 L 1003 292.75614932198744 L 1004 293.403234477197 L 1005 294.08374344901523 L 1006 294.79746679099173 L 1007 295.54418483398655 L 1008 296.3236677537796 L 1009 297.13567564180596 L 1010 297.9799585789951 L 1011 298.8562567126899 L 1012 299.7643003366245 L 1013 300.7038099739341 L 1014 301.6744964631719 L 1015 302.6760610473075 L 1016 303.7081954656772 L 1017 304.77058204886146 L 1018 305.8628938164554 L 1019 306.9847945777079 L 1020 308.13593903499293 L 1021 309.315972890086 L 1022 310.5245329532091 L 1023 311.76124725481264 L 1024 313.02573516006146 L 1025 314.3176074859843 L 1026 315.6364666212572 L 1027 316.98190664858015 L 1028 318.35351346960937 L 1029 319.75086493240855 L 1030 321.1735309613779 L 1031 322.6210736896238 L 1032 324.09304759372304 L 1033 325.5889996308472 L 1034 327.10846937819906 L 1035 328.65098917472136 L 1036 330.2160842650331 L 1037 331.80327294554894 L 1038 333.41206671273875 L 1039 335.0419704134771 L 1040 336.692482397442 L 1041 338.3630946715124 L 1042 340.0532930561175 L 1043 341.762557343491 L 1044 343.49036145777916 L 1045 345.23617361695807 L 1046 346.9994564965024 L 1047 348.7796673947643 L 1048 350.5762584000054 L 1049 352.3886765590324 L 1050 354.21636404738445 L 1051 356.05875834101977 L 1052 357.9152923894502 L 1053 359.78539479026506 L 1054 361.6684899649987 L 1055 363.56399833628075 L 1056 365.47133650621845 L 1057 367.3899174359538 L 1058 369.3191506263423 L 1059 371.25844229969556 L 1060 373.20719558253546 L 1061 375.1648106892968 L 1062 377.13068510693046 L 1063 379.1042137803439 L 1064 381.08478929862457 L 1065 383.07180208198815 L 1066 385.0646405693942 L 1067 387.06269140677335 L 1068 389.0653396358027 L 1069 391.07196888317844 L 1070 393.0819615503226 L 1071 395.09469900346676 L 1072 397.10956176405466 L 1073 399.12592969940454 L 1074 401.1431822135743 L 1075 403.16069843836584 L 1076 405.1778574244168 L 1077 407.1940383323156 L 1078 409.2086206236824 L 1079 411.2209842521585 L 1080 413.2305098542425 L 1081 415.23657893991975 L 1082 417.2385740830179 L 1083 419.2358791112395 L 1084 421.2278792958064 L 1085 423.2139615406606 L 1086 425.1935145711623 L 1087 427.1659291222273 L 1088 429.13059812584726 L 1089 431.0869168979307 L 1090 433.034283324413 L 1091 434.97209804657507 L 1092 436.8997646455125 L 1093 438.8166898257016 L 1094 440.7222835976024 L 1095 442.6159594592473 L 1096 444.49713457675097 L 1097 446.3652299636968 L 1098 448.21967065933603 L 1099 450.05988590554864 L 1100 451.885309322511 L 1101 453.69537908301515 L 1102 455.48953808538914 L 1103 457.26723412495903 L 1104 459.0279200640072 L 1105 460.77105400017007 L 1106 462.4960994332237 L 1107 464.2025254302079 L 1108 465.88980678883564 L 1109 467.55742419914077 L 1110 469.20486440330876 L 1111 470.8316203536482 L 1112 472.43719136864905 L 1113 474.02108328708186 L 1114 475.5828086200905 L 1115 477.12188670123084 L 1116 478.63784383440964 L 1117 480.13021343967966 L 1118 481.59853619684105 L 1119 483.04236018681206 L 1120 484.4612410307199 L 1121 485.8547420266712 L 1122 487.22243428415976 L 1123 488.5638968560699 L 1124 489.8787168682362 L 1125 491.16648964651597 L 1126 492.42681884134055 L 1127 493.6593165497031 L 1128 494.8636034345471 L 1129 496.0393088415185 L 1130 497.18607091304506 L 1131 498.30353669970924 L 1132 499.39136226887774 L 1133 500.44921281055736 L 1134 501.47676274044227 L 1135 502.47369580012247 L 1136 503.43970515442095 L 1137 504.3744934858315 L 1138 505.2777730860271 L 1139 506.1492659444098 L 1140 506.98870383367716 L 1141 507.79582839237673 L 1142 508.5703912044245 L 1143 509.31215387556205 L 1144 510.0208881067292 L 1145 510.69637576433047 L 1146 511.33840894737074 L 1147 511.9467900514438 L 1148 512.5213318295507 L 1149 513.0618574497303 L 1150 513.5682005494842 L 1151 514.0402052869804 L 1152 514.4777263890176 L 1153 514.8806291957372 L 1154 515.2487897020693 L 1155 515.5820945958981 L 1156 515.8804412929378 L 1157 516.1437379683052 L 1158 516.3719035847822 L 1159 516.5648679177568 L 1160 516.722571576837 L 1161 516.8449660241298 L 1162 516.9320135891803 L 1163 516.9836874805657 L 1164 516.9999717941414 L 1165 516.9808615179359 L 1166 516.9263625336929 L 1167 516.8364916150617 L 1168 516.7112764224344 L 1169 516.5507554944322 L 1170 516.3549782360449 L 1171 516.1240049034241 L 1172 515.857906585338 L 1173 515.5567651812922 L 1174 515.2206733763222 L 1175 514.8497346124668 L 1176 514.4440630569313 L 1177 514.003783566949 L 1178 513.5290316513523 L 1179 513.0199534288669 L 1180 512.4767055831386 L 1181 511.8994553145095 L 1182 511.28838028855773 L 1183 510.6436685814152 L 1184 509.96551862188204 L 1185 509.25413913035385 L 1186 508.5097490545825 L 1187 507.7325775022885 L 1188 506.9228636706456 L 1189 506.0808567726622 L 1190 505.2068159604778 L 1191 504.301010245602 L 1192 503.36371841611793 L 1193 502.39522895087725 L 1194 501.3958399307128 L 1195 500.3658589466942 L 1196 499.3056030054596 L 1197 498.21539843164646 L 1198 497.09558076745594 L 1199 495.94649466938 L 1200 494.7684938021233 L 1201 493.56194072975296 L 1202 492.32720680410773 L 1203 491.0646720505054 L 1204 489.77472505077765 L 1205 488.4577628236731 L 1206 487.1141907026632 L 1207 485.74442221118915 L 1208 484.34887893538803 L 1209 482.9279903943366 L 1210 481.4821939078557 L 1211 480.0119344619114 L 1212 478.51766457165786 L 1213 476.9998441421625 L 1214 475.4589403268571 L 1215 473.8954273837576 L 1216 472.3097865294966 L 1217 470.7025057912165 L 1218 469.07407985636377 L 1219 467.4250099204349 L 1220 465.7558035327187 L 1221 464.0669744400834 L 1222 462.35904242885636 L 1223 460.6325331648433 L 1224 458.8879780315415 L 1225 457.12591396658945 L 1226 455.3468832965094 L 1227 453.5514335697901 L 1228 451.7401173883633 L 1229 449.91349223752394 L 1230 448.0721203143485 L 1231 446.2165683546611 L 1232 444.34740745860586 L 1233 442.46521291487295 L 1234 440.5705640236372 L 1235 438.6640439182616 L 1236 436.7462393858208 L 1237 434.8177406865008 L 1238 432.8791413719279 L 1239 430.9310381024878 L 1240 428.9740304636847 L 1241 427.0087207816018 L 1242 425.0357139375178 L 1243 423.0556171817372 L 1244 421.0690399466915 L 1245 419.0765936593673 L 1246 417.07889155312415 L 1247 415.0765484789525 L 1248 413.07018071623565 L 1249 411.0604057830722 L 1250 409.04784224621665 L 1251 407.03310953069774 L 1252 405.0168277291709 L 1253 402.9996174110693 L 1254 400.98209943160356 L 1255 398.96489474067596 L 1256 396.9486241917653 L 1257 394.93390835084085 L 1258 392.92136730536566 L 1259 390.91162047344505 L 1260 388.90528641318474 L 1261 386.90298263231045 L 1262 384.90532539811187 L 1263 382.91292954776884 L 1264 380.92640829911693 L 1265 378.9463730619125 L 1266 376.9734332496518 L 1267 375.00819609200875 L 1268 373.0512664479405 L 1269 371.10324661952507 L 1270 369.16473616658527 L 1271 367.2363317221567 L 1272 365.31862680885706 L 1273 363.4122116562105 L 1274 361.51767301898997 L 1275 359.6355939966244 L 1276 357.7665538537335 L 1277 355.91112784184224 L 1278 354.0698870223304 L 1279 352.2433980906721 L 1280 350.4322232020172 L 1281 348.6369197981742 L 1282 346.85804043603963 L 1283 345.09613261753293 L 1284 343.3517386210868 L 1285 341.62539533474524 L 1286 339.9176340909208 L 1287 338.2289805028615 L 1288 336.55995430287703 L 1289 334.91106918237796 L 1290 333.2828326337708 L 1291 331.67574579426287 L 1292 330.09030329162266 L 1293 328.5269930919438 L 1294 326.9862963494595 L 1295 325.4686872584523 L 1296 323.97463290730855 L 1297 322.50459313475733 L 1298 321.0590203883418 L 1299 319.6383595851656 L 1300 318.2430479749563 L 1301 316.87351500548965 L 1302 315.5301821904132 L 1303 314.21346297951504 L 1304 312.9237626314713 L 1305 311.66147808911626 L 1306 310.426997857272 L 1307 309.22070188317423 L 1308 308.0429614395331 L 1309 306.8941390102618 L 1310 305.77458817891386 L 1311 304.6846535198554 L 1312 303.6246704922135 L 1313 302.59496533662855 L 1314 301.5958549748441 L 1315 300.62764691216546 L 1316 299.6906391428148 L 1317 298.7851200582163 L 1318 297.9113683582343 L 1319 297.06965296539556 L 1320 296.2602329421205 L 1321 295.48335741098924 L 1322 294.7392654780669 L 1323 294.02818615931136 L 1324 293.35033831008764 L 1325 292.70593055780836 L 1326 292.09516123772244 L 1327 291.51821833187205 L 1328 290.97527941123525 L 1329 290.4665115810738 L 1330 289.99207142950104 L 1331 289.55210497928806 L 1332 289.1467476429204 L 1333 288.77612418092116 L 1334 288.44034866345226 L 1335 288.139524435206 L 1336 287.8737440835977 L 1337 287.64308941026934 L 1338 287.4476314059126 L 1339 287.2874302284195 L 1340 287.162535184367 L 1341 287.0729847138415 L 1342 287.01880637860774 L 1343 287.0000168536259 L 1344 287.0166219219194 L 1345 287.06861647279493 L 1346 287.1559845034156 L 1347 287.278699123726 L 1348 287.43672256472877 L 1349 287.6300061901087 L 1350 287.85849051120215 L 1351 288.1221052053066 L 1352 288.4207691373242 L 1353 288.7543903847337 L 1354 289.1228662658822 L 1355 289.5260833715882 L 1356 289.96391760004695 L 1357 290.43623419502626 L 1358 290.9428877873414 L 1359 291.4837224395974 L 1360 292.05857169418215 L 1361 292.6672586244998 L 1362 293.30959588942443 L 1363 293.98538579095964 L 1364 294.6944203350863 L 1365 295.4364812957782 L 1366 296.2113402821685 L 1367 297.0187588088422 L 1368 297.8584883692383 L 1369 298.73027051213387 L 1370 299.6338369211908 L 1371 300.5689094975375 L 1372 301.53520044536185 L 1373 302.53241236048945 L 1374 303.5602383219174 L 1375 304.6183619862787 L 1376 305.7064576852063 L 1377 306.8241905255667 L 1378 307.971216492533 L 1379 309.14718255546586 L 1380 310.35172677656897 L 1381 311.58447842228543 L 1382 312.84505807740203 L 1383 314.13307776182563 L 1384 315.44814104999494 L 1385 316.78984319289225 L 1386 318.1577712426164 L 1387 319.5515041794805 L 1388 320.9706130415917 L 1389 322.41466105687726 L 1390 323.8832037775141 L 1391 325.3757892167203 L 1392 326.89195798786716 L 1393 328.43124344586874 L 1394 329.9931718308065 L 1395 331.5772624137408 L 1396 333.1830276446708 L 1397 334.8099733025914 L 1398 336.4575986476045 L 1399 338.12539657503623 L 1400 339.81285377151295 L 1401 341.51945087294837 L 1402 343.2446626243941 L 1403 344.9879580417002 L 1404 346.74880057494227 L 1405 348.5266482735602 L 1406 350.32095395315906 L 1407 352.131165363921 L 1408 353.9567253605759 L 1409 355.79707207388066 L 1410 357.65163908354833 L 1411 359.5198555925822 L 1412 361.40114660295455 L 1413 363.29493309257936 L 1414 365.2006321935229 L 1415 367.117657371398 L 1416 369.045418605889 L 1417 370.98332257234466 L 1418 372.9307728243934 L 1419 374.88716997751595 L 1420 376.85191189352395 L 1421 378.8243938658853 L 1422 380.80400880583966 L 1423 382.79014742924943 L 1424 384.78219844412246 L 1425 386.7795487387561 L 1426 388.78158357044026 L 1427 390.78768675466216 L 1428 392.797240854755 L 1429 394.80962737193164 L 1430 396.8242269356476 L 1431 398.8404194942274 L 1432 400.8575845057055 L 1433 402.8751011288158 L 1434 404.89234841407335 L 1435 406.9087054948898 L 1436 408.92355177866267 L 1437 410.9362671377825 L 1438 412.94623210049286 L 1439 414.95282804155215 L 1440 416.95543737263324 L 1441 418.95344373240454 L 1442 420.94623217623257 L 1443 422.9331893654494 L 1444 424.91370375612627 L 1445 426.8871657872924 L 1446 428.85296806854626 L 1447 430.8105055669974 L 1448 432.75917579348294 L 1449 434.6983789880011 L 1450 436.62751830430443 L 1451 438.54599999359834 L 1452 440.4532335872819 L 1453 442.3486320786837 L 1454 444.2316121037295 L 1455 446.1015941204897 L 1456 447.9580025875504 L 1457 449.80026614115263 L 1458 451.627817771046 L 1459 453.44009499500436 L 1460 455.2365400319434 L 1461 457.0165999735957 L 1462 458.77972695468424 L 1463 460.5253783215435 L 1464 462.25301679913696 L 1465 463.9621106564191 L 1466 465.6521338699923 L 1467 467.3225662860036 L 1468 468.972893780239 L 1469 470.60260841635943 L 1470 472.211208602233 L 1471 473.79819924431496 L 1472 475.36309190002623 L 1473 476.9054049280877 L 1474 478.4246636367569 L 1475 479.92040042993005 L 1476 481.3921549510574 L 1477 482.8394742248321 L 1478 484.26191279660577 L 1479 485.6590328694905 L 1480 487.0304044391044 L 1481 488.3756054259164 L 1482 489.6942218051543 L 1483 490.98584773423335 L 1484 492.2500856776654 L 1485 493.4865465294125 L 1486 494.6948497326452 L 1487 495.8746233968709 L 1488 497.02550441239265 L 1489 498.14713856206765 L 1490 499.23918063032767 L 1491 500.3012945094291 L 1492 501.3331533029001 L 1493 502.3344394261519 L 1494 503.3048447042262 L 1495 504.2440704666429 L 1496 505.1518276393262 L 1497 506.02783683357495 L 1498 506.8718284320529 L 1499 507.68354267177097 L 1500 508.462729724037 L 1501 509.2091497713484 L 1502 509.9225730812018 L 1503 510.60278007680085 L 1504 511.249561404637 L 1505 511.86271799892427 L 1506 512.4420611428675 L 1507 512.9874125267451 L 1508 513.4986043027899 L 1509 513.9754791368484 L 1510 514.4178902568052 L 1511 514.8257014977564 L 1512 515.1987873439183 L 1513 515.5370329672587 L 1514 515.840334262838 L 1515 516.1085978808517 L 1516 516.3417412553599 L 1517 516.5396926297009 L 1518 516.7023910785754 L 1519 516.8297865267983 L 1520 516.9218397647113 L 1521 516.9785224602499 L 1522 516.9998171676642 L 1523 516.985717332888 L 1524 516.936227295556 L 1525 516.851362287668 L 1526 516.7311484289015 L 1527 516.5756227185716 L 1528 516.3848330242441 L 1529 516.1588380670028 L 1530 515.897707403376 L 1531 515.6015214039288 L 1532 515.2703712285266 L 1533 514.904358798278 L 1534 514.5035967641656 L 1535 514.0682084723745 L 1536 513.5983279263288 L 1537 513.0940997454478 L 1538 512.555679120636 L 1539 511.98323176651786" stroke-linecap="round" stroke-linejoin="round" stroke-miterlimit="10" stroke-width="26"/></g></svg>